<?xml version="1.0" encoding="utf-8"?>
<!-- Generator: Adobe Illustrator 19.0.0, SVG Export Plug-In . SVG Version: 6.00 Build 0)  -->
<svg version="1.1" id="Layer_1" xmlns="http://www.w3.org/2000/svg" xmlns:xlink="http://www.w3.org/1999/xlink" x="0px" y="0px"
	 width="1291.5px" height="454.4px" viewBox="-672.3 182.3 1291.5 454.4" style="enable-background:new -672.3 182.3 1291.5 454.4;"
	 xml:space="preserve">
<style type="text/css">
	.st0{fill:#007BBC;}
	.st1{fill:#161413;}
</style>
<path class="st0" d="M-473.2,520h-45.1c40.3-17.7,56.4-67.7,30.6-106.3c-19.3-27.4-62.8-51.6-29-132.1
	c-4.8,82.2,90.2,88.6,90.2,164.3C-424.9,497.5-473.2,520-473.2,520L-473.2,520z M-481.3,545.8h-66.1l-9.7-14.5h87L-481.3,545.8
	L-481.3,545.8z M-558.6,334.7c-11.3,40.3-8.1,67.7,16.1,88.6c43.5,40.3,33.8,80.6,11.3,96.7H-557
	C-645.6,470.1-577.9,360.5-558.6,334.7z M-542.5,350.8c0,27.4,8.1,35.4,27.4,53.2c43.5,38.7,22.6,79,14.5,87
	c6.4-35.4-1.6-49.9-33.8-82.2C-555.4,391.1-548.9,365.3-542.5,350.8z M-513.5,204.2c0,0-128.9,88.6-128.9,236.9v122.5h104.7v-8.1
	h48.3v8.1h104.7V439.4C-384.6,291.2-513.5,204.2-513.5,204.2L-513.5,204.2z"/>
<g>
	<path class="st1" d="M-286.4,306.9c8.3-22,15.6-38.6,28.5-68l22,68H-286.4L-286.4,306.9z M-75.1,367.5c-9.2,0-10.1,0-10.1-36.7v-34
		c0-14.7-6.4-29.4-29.4-29.4c-15.6,0-28.5,9.2-41.3,19.3v-19.3c-3.7,0-9.2,0.9-16.5,1.8c-5.5,0.9-13.8,1.8-16.5,1.8v5.5h12.9
		c3.7,0,6.4,0,6.4,21.1v67.1c0,2.8-2.8,2.8-4.6,2.8h-18.4c-5.5,0-8.3-8.3-11.9-15.6c-9.2-21.1-43.2-117.6-43.2-127.7
		c0-5.5,3.7-4.6,3.7-7.3c0-0.9-0.9-1.8-1.8-1.8c-1.8,0-7.3,0.9-12.9,2.8L-317.6,362c-1.8,5.5-2.8,5.5-13.8,5.5v5.5h48.7v-5.5h-15.6
		c-5.5,0-5.5-4.6-5.5-6.4c0-6.4,5.5-24.8,13.8-45.9h57c7.3,20.2,17.5,47.8,17.5,49.6c0,1.8-0.9,2.8-4.6,2.8h-11.9v5.5h97.4v-5.5
		h-9.2c-9.2,0-10.1,0-10.1-36.7v-37.7c11-9.2,22-15.6,35.8-15.6c11,0,20.2,5.5,20.2,24.8v62.5c0,2.8-2.8,2.8-4.6,2.8h-9.2v5.5H-65
		v-5.5C-65,367.5-75.1,367.5-75.1,367.5z"/>
	<path class="st1" d="M16.4,283c-7.3-5.5-16.5-9.2-26.6-9.2c-26.6,0-39.5,22-39.5,47.8c0,23,10.1,45,35.8,45
		c12.9,0,21.1-5.5,30.3-13.8V283z M16.4,237.1c0-21.1-2.8-21.1-6.4-21.1H-2.9v-5.5c11-0.9,22-2.8,33.1-5.5v126.8
		c0,36.7,0.9,36.7,10.1,36.7h9.2v5.5c-2.8,0-9.2,0.9-16.5,1.8c-7.3,0.9-13.8,1.8-16.5,1.8v-18.4c-15.6,11-25.7,18.4-39.5,18.4
		c-28.5,0-41.3-27.6-41.3-52.4c0-31.2,18.4-57.9,51.4-57.9c9.2,0,19.3,2.8,28.5,8.3v-38.6H16.4z"/>
	<path class="st1" d="M72.6,297.9c0-21.1-2.8-21.1-6.4-21.1H53.4v-5.5c3.7,0,11-0.9,16.5-1.8c7.3-0.9,12.9-1.8,16.5-1.8v21.1
		c18.4-16.5,24.8-21.1,32.1-21.1c3.7,0,8.3,1.8,11,5.5c-2.8,15.6-3.7,16.5-5.5,16.5c-3.7,0-0.9-7.3-13.8-7.3
		c-7.3,0-13.8,3.7-23.9,13.8v35.8c0,36.7,0.9,36.7,10.1,36.7h9.2v5.5H58.9v-5.5h9.2c1.8,0,4.6,0,4.6-2.8V297.9z"/>
	<path class="st1" d="M208.5,313.5c0-9.2-2.8-40.4-32.1-40.4c-17.5,0-29.4,22-29.4,40.4H208.5z M147.9,320
		c0.9,24.8,11,46.8,39.5,46.8c11.9,0,22-3.7,31.2-11.9l3.7,3.7c-11.9,12.9-26.6,19.3-44.1,19.3c-29.4,0-44.1-24.8-44.1-52.4
		c0-27.6,14.7-57.9,45.9-57.9c26.6,0,42.3,23.9,42.3,52.4L147.9,320L147.9,320z"/>
	<path class="st1" d="M390.4,277.2h-7.3c-2.8,0-2.8,0-6.4,6.4c-1.8,3.7-20.2,46.8-37.7,91.9c-0.9,1.8-1.8,3.7-2.8,3.7
		c-1.8,0-1.8-0.9-3.7-4.6l-25.7-68.9l-28.5,68.9c-1.8,3.7-1.8,4.6-3.7,4.6c-1.8,0-1.8-1.8-3.7-4.6l-32.1-81.8
		c-4.6-11-7.3-14.7-11.9-14.7h-6.4v-5.5h44.1v5.5h-11.9c-1.8,0-3.7,0-3.7,1.8c0,2.8,4.6,11.9,28.5,74.4c11-22,16.5-35.8,24.8-55.1
		C294.9,279,294,279,288.5,279H282v-5.5h43.2v5.5h-12.9c-1.8,0-3.7,0-3.7,1.8c0,2.8,17.5,45.9,29.4,74.4
		c26.6-62.5,27.6-66.1,27.6-71.6c0-3.7-1.8-3.7-4.6-3.7h-11v-5.5h37.7v2.8H390.4z"/>
	<path class="st1" d="M406.7,294.2c0,25.7,61.5,11.9,61.5,49.6c0,23.9-25.7,34-45.9,34c-9.2,0-18.4-1.8-26.6-4.6
		c-1.8-9.2-2.8-18.4-2.8-21.1c0-1.8,0.9-1.8,2.8-1.8c1.8,0,2.8,2.8,2.8,3.7c1.8,9.2,18.4,15.6,31.2,15.6c11.9,0,27.6-7.3,27.6-22
		c0-27.6-60.6-11-60.6-48.7c0-16.5,16.5-31.2,37.7-31.2c10.1,0,19.3,1.8,26.6,4.6c0.9,6.4,1.8,14.7,1.8,16.5c0,0.9-0.9,1.8-1.8,1.8
		c-1.8,0-1.8-0.9-2.8-1.8c-0.9-1.8-6.4-12.9-27.6-12.9C420.5,275,406.7,281.4,406.7,294.2z"/>
</g>
<g>
	<path class="st1" d="M-225.2,407.7h44.1v6.4h-10.1c-2.8,0-4.6,0.9-4.6,2.8v87.3c0,45.9-33.1,60.6-62.5,60.6c-22,0-56-9.2-56-52.4
		v-66.1c0-27.6-0.9-32.1-6.4-32.1h-13.8v-6.4h51.4v6.4h-9.2c-2.8,0-5.5,0-5.5,2.8v91.9c0,41.3,29.4,46.8,44.1,46.8
		c15.6,0,50.5-4.6,50.5-53.3V449c0-34-2.8-34.9-8.3-34.9h-13.8L-225.2,407.7L-225.2,407.7z"/>
	<path class="st1" d="M-144.6,518.4c0,36.7,0.9,36.7,10.1,36.7h9.2v5.5h-46.8v-5.5h9.2c1.8,0,4.6,0,4.6-2.8v-67.1
		c0-21.1-2.8-21.1-6.4-21.1h-12.9v-5.5c3.7,0,11-0.9,16.5-1.8c7.3-0.9,12.9-1.8,16.5-1.8v19.3c12.9-10.1,25.7-19.3,41.3-19.3
		c23,0,29.4,15.6,29.4,29.4v34c0,36.7,0.9,36.7,10.1,36.7h9.2v5.5h-46.8v-5.5h9.2c1.8,0,4.6,0,4.6-2.8v-62.5
		c0-19.3-9.2-24.8-20.2-24.8c-14.7,0-25.7,7.3-35.8,15.6v37.7L-144.6,518.4z"/>
	<path class="st1" d="M-27.9,409.9c4.6,0,9.2,3.7,9.2,9.2c0,4.6-3.7,9.2-9.2,9.2c-4.6,0-9.2-3.7-9.2-9.2
		C-37.1,414.5-33.4,409.9-27.9,409.9z M-19.6,518.3c0,36.7,0.9,36.7,10.1,36.7h9.2v5.5h-46.8v-5.5h9.2c1.8,0,4.6,0,4.6-2.8v-67.1
		c0-21.1-2.8-21.1-6.4-21.1h-12.9v-5.5c3.7,0,11-0.9,16.5-1.8c7.3-0.9,12.9-1.8,16.5-1.8L-19.6,518.3L-19.6,518.3z"/>
	<path class="st1" d="M-2.4,458.1h44.1v5.5H29.7c-1.8,0-3.7,0-3.7,1.8c0,2.8,10.1,24.8,31.2,76.2c18.4-37.7,27.6-64.3,27.6-73.5
		c0-3.7-2.8-3.7-6.4-3.7h-11v-5.5h41.3v5.5h-8.3c-1.8,0-2.8,0-4.6,3.7c-8.3,18.4-28.5,65.2-40.4,95.5c-0.9,1.8-1.8,2.8-2.8,2.8
		s-1.8,0-3.7-4.6c-2.8-8.3-24.8-64.3-33.1-81.8c-4.6-11-7.3-14.7-11.9-14.7h-6.4L-2.4,458.1L-2.4,458.1z"/>
	<path class="st1" d="M223.4,485.3c0-21.1-2.8-21.1-6.4-21.1h-12.9v-5.5c3.7,0,11-0.9,16.5-1.8c7.3-0.9,12.9-1.8,16.5-1.8v21.1
		c18.4-16.5,24.8-21.1,32.1-21.1c3.7,0,8.3,1.8,11,5.5c-2.8,15.6-3.7,16.5-5.5,16.5c-3.7,0-0.9-7.3-13.8-7.3
		c-7.3,0-13.8,3.7-23.9,13.8v35.8c0,36.7,0.9,36.7,10.1,36.7h9.2v5.5h-46.8V556h9.2c1.8,0,4.6,0,4.6-2.8V485.3z"/>
	<path class="st1" d="M302.9,480.7c0,25.7,61.5,11.9,61.5,49.6c0,23.9-25.7,34-45.9,34c-9.2,0-18.4-1.8-26.6-4.6
		c-1.8-9.2-2.8-18.4-2.8-21.1c0-1.8,0.9-1.8,2.8-1.8s2.8,2.8,2.8,3.7c1.8,9.2,18.4,15.6,31.2,15.6s27.6-7.3,27.6-22
		c0-27.6-60.6-11-60.6-48.7c0-16.5,16.5-31.2,37.7-31.2c10.1,0,19.3,1.8,26.6,5.5c0.9,6.4,1.8,14.7,1.8,16.5c0,0.9-0.9,1.8-1.8,1.8
		c-1.8,0-1.8-0.9-2.8-1.8c-0.9-1.8-6.4-12.9-27.6-12.9C316.7,462.3,302.9,468.8,302.9,480.7L302.9,480.7z"/>
	<path class="st1" d="M400.7,409.9c4.6,0,9.2,3.7,9.2,9.2c0,4.6-3.7,9.2-9.2,9.2c-4.6,0-9.2-3.7-9.2-9.2
		C391.5,414.5,395.2,409.9,400.7,409.9z M408.9,518.3c0,36.7,0.9,36.7,10.1,36.7h9.2v5.5h-46.8v-5.5h9.2c1.8,0,4.6,0,4.6-2.8v-67.1
		c0-21.1-2.8-21.1-6.4-21.1h-12.9v-5.5c3.7,0,11-0.9,16.5-1.8c7.3-0.9,12.9-1.8,16.5-1.8L408.9,518.3L408.9,518.3z"/>
	<path class="st1" d="M553.2,457.9v5.5h11c3.7,0,5.5,0,5.5,3.7c0,4.6-1.8,19.3-27.6,74.4c-9.2-22-32.1-73.5-32.1-76.2
		c0-1.8,1.8-1.8,3.7-1.8h11.9l-2.8-5.5h-65.2v-23H454l-19.3,23c-1.8,1.8-2.8,2.8-2.8,3.7c0,1.8,0.9,1.8,6.4,1.8h5.5v78.1
		c0,12.9,7.3,22,21.1,22c8.3,0,21.1-3.7,28.5-8.3l-1.8-4.6c-4.6,1.8-11,3.7-16.5,3.7c-15.6,0-16.5-11.9-16.5-22v-68.9h30.3
		c4.6,0,6.4,3.7,11.9,14.7l34,79.9c-23,50.5-36.7,52.4-44.1,56c-2.8,0.9-3.7,1.8-3.7,2.8c0,1.8,0.9,2.8,2.8,2.8
		c8.3,0,16.5-0.9,24.8-2.8c11-13.8,60.6-135,64.3-145.1c3.7-8.3,2.8-8.3,6.4-8.3h8.3v-5.5L553.2,457.9L553.2,457.9z"/>
	<path class="st1" d="M181.9,501.4c-0.9-9.2-2.8-40.4-32.1-40.4c-17.5,0-29.4,22-29.4,40.4H181.9z M121.3,507.9
		c0.9,24.8,11,46.8,39.5,46.8c11.9,0,22-3.7,31.2-11.9l3.7,3.7c-11.9,12.9-26.6,19.3-44.1,19.3c-29.4,0-44.1-24.8-44.1-52.4
		c0-27.6,14.7-57.9,45.9-57.9c26.6,0,42.3,23,42.3,52.4L121.3,507.9L121.3,507.9z"/>
</g>
</svg>
