<?xml version="1.0" encoding="utf-8"?>
<!-- Generator: Adobe Illustrator 19.0.0, SVG Export Plug-In . SVG Version: 6.00 Build 0)  -->
<svg version="1.1" id="Layer_1" xmlns="http://www.w3.org/2000/svg" xmlns:xlink="http://www.w3.org/1999/xlink" x="0px" y="0px"
	 width="71.6px" height="71.4px" viewBox="-475 349.6 71.6 71.4" style="enable-background:new -475 349.6 71.6 71.4;"
	 xml:space="preserve">
<style type="text/css">
	.st0{fill-rule:evenodd;clip-rule:evenodd;fill:#00A99D;}
	.st1{fill:#FFFFFF;stroke:#00A99D;stroke-width:0.8009;stroke-miterlimit:10;}
	.st2{fill:#FFFFFF;}
</style>
<g id="XMLID_822_">
	<g id="XMLID_831_">
		<circle id="XMLID_952_" class="st0" cx="-439.2" cy="385.3" r="35.1"/>
		<g id="XMLID_837_">
			<polygon id="XMLID_951_" class="st1" points="-458.2,397.7 -447.1,384.3 -458.2,375.3 			"/>
			<polygon id="XMLID_843_" class="st1" points="-420.2,397.7 -420.2,375.3 -431.4,384.3 			"/>
			<polygon id="XMLID_841_" class="st2" points="-420.3,398.6 -420.2,398.6 -420.2,398.5 			"/>
			<polygon id="XMLID_840_" class="st2" points="-458.2,398.6 -458.2,398.6 -458.2,398.5 			"/>
			<polygon id="XMLID_839_" class="st1" points="-420.8,398.6 -420.9,398.5 -432.2,385 -439.2,390.6 -446.2,385 -457.5,398.5 
				-457.6,398.6 			"/>
			<polygon id="XMLID_838_" class="st1" points="-446.4,383.5 -445.9,383.8 -445.5,384.2 -439.2,389.2 -432.9,384.2 -432.5,383.8 
				-432.1,383.5 -421.1,374.6 -457.4,374.6 			"/>
		</g>
	</g>
</g>
</svg>
