<?xml version="1.0" encoding="utf-8"?>
<!-- Generator: Adobe Illustrator 19.0.0, SVG Export Plug-In . SVG Version: 6.00 Build 0)  -->
<svg version="1.1" id="Layer_1" xmlns="http://www.w3.org/2000/svg" xmlns:xlink="http://www.w3.org/1999/xlink" x="0px" y="0px"
	 width="290.7px" height="180.7px" viewBox="0 0 290.7 180.7" style="enable-background:new 0 0 290.7 180.7;" xml:space="preserve"
	>
<style type="text/css">
	.st0{fill:#A40931;}
	.st1{fill-rule:evenodd;clip-rule:evenodd;fill:#BE9F56;}
	.st2{fill-rule:evenodd;clip-rule:evenodd;fill:#A40931;}
	.st3{fill:#1D1D1B;}
</style>
<path class="st0" d="M61.9,71.2c-7.1-2.7-14.4-4.6-22-4.6C22,66.5,8,79.8,8,97.9c0,12.3,8.8,31.2,32.9,31.2c7.5,0,15.4-2.4,22.3-4.9
	v-1.5l-1.3-1.3v-11.2c0-6.3,3.3-6.3,6.1-6.3v-2.2c-2.6,0.1-6.5,0.2-10.5,0.2c-3.9,0-7.8-0.1-11.8-0.2v2.2c4.5,0,7.8,0,7.8,6.3v12.8
	c-1.3,0.9-4.8,3.3-11.6,3.3c-15.4,0-24.5-14.8-24.5-29.7c0-14,8.7-27.3,23.9-27.3c9.6,0,17.9,3.9,20.2,13.9h1.9L61.9,71.2z"/>
<path class="st0" d="M87.3,105.1c4.9,7.8,9.5,15.8,15.8,22.6c1.9-0.1,3.9-0.1,5.8-0.1c1.7,0,3.4,0.1,5.1,0.1v-1.8
	c-3.5,0-5.6-1.9-7.8-4.3c-2.9-3.3-6.2-8.8-12.5-17.9c5.4-1.6,9.7-5.9,9.7-11.7c0-4.9-2.9-12.1-15.9-12.1c-4.4,0-6.8,0.1-9.2,0.1
	c-3.4,0-6.7-0.1-10.4-0.1v1.8c3.6,0.1,6.2,0.1,6.2,4.9v34.8c0,3.9-2.8,4.8-6.2,4.6v1.8c3.4-0.1,6.7-0.1,10-0.1c3,0,6,0.1,9.3,0.1
	v-1.8c-3.6-0.1-6.2-0.1-6.2-4.9v-15.9H87.3z M96.5,92.4c0,4.9-3.3,10.5-11.7,10.5c-1.2,0-2.6-0.1-3.6-0.3V82.4
	c1.2-0.2,2.4-0.4,4.1-0.4C93.3,82,96.5,86.4,96.5,92.4"/>
<path class="st0" d="M120,121c0,4.8-2.6,4.9-6.2,4.9v1.8c3.4-0.1,6.7-0.1,10-0.1c3,0,6,0.1,9.3,0.1v-1.8c-3.6-0.1-6.2-0.1-6.2-4.9
	V86.5c0-4.8,2.6-4.9,6.2-4.9v-1.8c-3.4,0.1-6.6,0.1-9.7,0.1c-3.1,0-6.2-0.1-9.5-0.1v1.8c3.6,0.1,6.2,0.1,6.2,4.9V121z"/>
<path class="st0" d="M177.8,82.5c-5.7-2.1-11.5-3.7-17.6-3.7c-14.3,0-25.5,10.6-25.5,25.1c0,9.8,7.1,24.9,26.4,24.9
	c6,0,12.3-1.9,17.8-3.9v-1.2l-1-1v-9c0-5,2.6-5,4.9-5v-1.8c-2.1,0.1-5.2,0.1-8.4,0.1c-3.1,0-6.2-0.1-9.5-0.1v1.8c3.6,0,6.2,0,6.2,5
	v10.2c-1,0.8-3.8,2.7-9.3,2.7c-12.4,0-19.6-11.9-19.6-23.7c0-11.2,7-21.8,19.1-21.8c7.7,0,14.3,3.2,16.1,11.1h1.5L177.8,82.5z"/>
<path class="st0" d="M228.8,82.5c-5.7-2.1-11.5-3.7-17.6-3.7c-14.3,0-25.5,10.6-25.5,25.1c0,9.8,7.1,24.9,26.4,24.9
	c6,0,12.3-1.9,17.8-3.9v-1.2l-1-1v-9c0-5,2.6-5,4.9-5v-1.8c-2.1,0.1-5.2,0.1-8.4,0.1c-3.1,0-6.2-0.1-9.5-0.1v1.8c3.6,0,6.2,0,6.2,5
	v10.2c-1,0.8-3.8,2.7-9.3,2.7c-12.4,0-19.6-11.9-19.6-23.7c0-11.2,7-21.8,19.1-21.8c7.7,0,14.3,3.2,16.1,11.1h1.5L228.8,82.5z"/>
<path class="st0" d="M237.2,126.4c3.2,1.5,6.9,2.3,10.5,2.3c8.1,0,16.1-5,16.1-13.9c0-15.8-21.1-12.3-21.1-25.1c0-5,3-8.8,8.2-8.8
	c4.9,0,8.1,2.8,8.9,7.6h1.6l-1.1-8.8c-2.7-0.4-5.6-1-8.4-1c-8.4,0-14.7,4.6-14.7,13.5c0,16.2,20.3,12.4,20.3,25.2
	c0,5.4-4.1,9.1-9.4,9.1c-5.7,0-9.5-5-10.7-10.2h-1.6L237.2,126.4z"/>
<rect x="19.3" y="136.1" class="st0" width="1.5" height="11.4"/>
<path class="st0" d="M28,147.5v-3.9c0-1.5,0-2.6-0.1-3.8l0,0c0.4,1,1.1,2,1.7,3l2.9,4.6h1.2v-9.1h-1.1v3.8c0,1.4,0,2.5,0.1,3.7l0,0
	c-0.4-0.9-1-1.9-1.6-3l-2.9-4.6h-1.3v9.1H28z"/>
<polygon class="st0" points="41.2,147.5 42.4,147.5 42.4,139.4 45.2,139.4 45.2,138.4 38.5,138.4 38.5,139.4 41.2,139.4 "/>
<polygon class="st0" points="54.6,142.3 51.1,142.3 51.1,139.4 54.9,139.4 54.9,138.4 49.9,138.4 49.9,147.5 55.1,147.5 55.1,146.5 
	51.1,146.5 51.1,143.2 54.6,143.2 "/>
<path class="st0" d="M60.4,147.5h1.2v-3.9h1.1c1.1,0,1.6,0.5,1.8,1.8c0.2,1.1,0.4,1.9,0.6,2.2h1.2c-0.2-0.4-0.4-1.2-0.7-2.5
	c-0.2-0.9-0.6-1.6-1.3-1.8v0c0.9-0.3,1.7-1.1,1.7-2.3c0-0.7-0.3-1.3-0.7-1.7c-0.6-0.5-1.4-0.8-2.7-0.8c-0.8,0-1.7,0.1-2.3,0.2V147.5
	z M61.5,139.4c0.2-0.1,0.6-0.1,1.2-0.1c1.2,0,2.1,0.5,2.1,1.7c0,1-0.8,1.7-2.1,1.7h-1.2V139.4z"/>
<path class="st0" d="M72.6,147.5v-3.9c0-1.5,0-2.6-0.1-3.8l0,0c0.4,1,1.1,2,1.7,3l2.9,4.6h1.2v-9.1h-1.1v3.8c0,1.4,0,2.5,0.1,3.7
	l0,0c-0.4-0.9-1-1.9-1.6-3l-2.9-4.6h-1.3v9.1H72.6z"/>
<path class="st0" d="M88.8,144.6l1,2.9h1.3l-3.1-9.1h-1.4l-3.1,9.1h1.2l0.9-2.9H88.8z M85.9,143.7l0.9-2.6c0.2-0.6,0.3-1.1,0.4-1.7
	h0c0.1,0.5,0.3,1.1,0.5,1.7l0.9,2.6H85.9z"/>
<polygon class="st0" points="97.9,147.5 99.1,147.5 99.1,139.4 101.8,139.4 101.8,138.4 95.1,138.4 95.1,139.4 97.9,139.4 "/>
<rect x="106.6" y="138.4" class="st0" width="1.2" height="9.1"/>
<path class="st0" d="M117.2,147.7c2.3,0,4.2-1.7,4.2-4.8c0-2.7-1.6-4.6-4.1-4.6c-2.4,0-4.2,1.9-4.2,4.8
	C113.1,145.8,114.8,147.7,117.2,147.7L117.2,147.7z M117.2,146.7c-1.9,0-2.9-1.8-2.9-3.7c0-2,1-3.8,2.9-3.8c2,0,2.9,1.9,2.9,3.7
	C120.2,145,119.1,146.7,117.2,146.7L117.2,146.7z"/>
<path class="st0" d="M127.8,147.5v-3.9c0-1.5,0-2.6-0.1-3.8l0,0c0.4,1,1.1,2,1.7,3l2.9,4.6h1.2v-9.1h-1.1v3.8c0,1.4,0,2.5,0.1,3.7
	l0,0c-0.4-0.9-1-1.9-1.6-3l-2.9-4.6h-1.3v9.1H127.8z"/>
<path class="st0" d="M144.1,144.6l1,2.9h1.3l-3.1-9.1h-1.4l-3.1,9.1h1.2l0.9-2.9H144.1z M141.1,143.7l0.9-2.6
	c0.2-0.6,0.3-1.1,0.4-1.7h0c0.1,0.5,0.3,1.1,0.5,1.7l0.9,2.6H141.1z"/>
<polygon class="st0" points="151.4,147.5 156.5,147.5 156.5,146.5 152.6,146.5 152.6,138.4 151.4,138.4 "/>
<path class="st0" d="M174.8,143.9l1.2,3.6h1.6l-3.9-11.4h-1.8l-3.9,11.4h1.5l1.2-3.6H174.8z M171,142.8l1.1-3.3
	c0.2-0.7,0.4-1.4,0.6-2.1h0c0.2,0.7,0.3,1.3,0.6,2.1l1.1,3.3H171z"/>
<path class="st0" d="M188.9,146.3c-0.5,0.2-1.2,0.4-1.9,0.4c-2.2,0-3.5-1.4-3.5-3.7c0-2.4,1.4-3.7,3.6-3.7c0.8,0,1.4,0.2,1.8,0.4
	l0.3-1c-0.3-0.1-1-0.4-2.2-0.4c-2.8,0-4.8,1.9-4.8,4.8c0,3,1.9,4.6,4.5,4.6c1.1,0,2-0.2,2.4-0.4L188.9,146.3z"/>
<path class="st0" d="M199.1,144.6l1,2.9h1.3l-3.1-9.1h-1.4l-3.1,9.1h1.2l1-2.9H199.1z M196.1,143.7l0.9-2.6c0.2-0.6,0.3-1.1,0.4-1.7
	h0c0.1,0.5,0.3,1.1,0.5,1.7l0.9,2.6H196.1z"/>
<path class="st0" d="M206.4,147.5c0.6,0.1,1.3,0.1,2.2,0.1c1.8,0,3.2-0.5,4-1.3c0.8-0.8,1.3-2.1,1.3-3.5c0-1.5-0.5-2.5-1.3-3.3
	c-0.8-0.7-2-1.1-3.7-1.1c-0.9,0-1.8,0.1-2.5,0.2V147.5z M207.6,139.4c0.3-0.1,0.8-0.1,1.4-0.1c2.5,0,3.7,1.4,3.7,3.5
	c0,2.5-1.4,3.9-3.9,3.9c-0.5,0-0.9,0-1.2-0.1V139.4z"/>
<polygon class="st0" points="223.9,142.3 220.4,142.3 220.4,139.4 224.1,139.4 224.1,138.4 219.2,138.4 219.2,147.5 224.3,147.5 
	224.3,146.5 220.4,146.5 220.4,143.2 223.9,143.2 "/>
<path class="st0" d="M237.5,147.5h1.2l-0.6-9.1h-1.5l-1.6,4.4c-0.4,1.2-0.7,2.2-1,3.1h0c-0.2-0.9-0.5-2-0.9-3.1l-1.6-4.4H230
	l-0.6,9.1h1.1l0.2-3.9c0.1-1.4,0.2-2.9,0.2-4h0c0.3,1.1,0.6,2.3,1,3.5l1.5,4.3h0.9l1.6-4.4c0.5-1.2,0.8-2.4,1.2-3.5h0
	c0,1.1,0.1,2.7,0.1,3.9L237.5,147.5z"/>
<path class="st0" d="M247.3,147.5v-3.9l3-5.2H249l-1.3,2.5c-0.4,0.7-0.7,1.3-0.9,1.9h0c-0.3-0.6-0.6-1.2-0.9-1.9l-1.3-2.5h-1.4
	l2.9,5.3v3.9H247.3z"/>
<path class="st1" d="M224,27.3c2.1,0.5-10.1,44.2-12.9,43.1C209.1,69.8,222.2,26.7,224,27.3"/>
<path class="st1" d="M220.3,24.7c3.2,0.6,0.7,1.1-1.6,1.4c-22.1,2.7-35.7,16.5-47.2,42.1c-0.2,0.5-1.2,3-2.1,2.6
	c-4.8,0,4.8-32.5,29.8-42.6C206.6,25.2,215.3,23.7,220.3,24.7"/>
<path class="st1" d="M237.1,34.9c-6-5.4-9.7-7.8-9.6-8.3c1.3-0.7,14.1,8.4,19.6,15.2c9,10.9,9.2,20.1,8.1,20.3
	C254.4,62,252.1,48.5,237.1,34.9"/>
<path class="st1" d="M254.7,46c-1.4,1.9-6.8,5-10.3,5.4c-6.4,0.8-13.6,0.6-23.4-1.7c-9.8-2.3-16.2-4.9-23.3-9.1
	c-7.5-4.6-12.5-12-12.2-15.9c0.4-5.3,12.5-4.7,11.4-2c-0.5,1.4-4.9,0.4-6,2.7c-1.3,2.6,2,7.2,10.6,12.5C213.1,45,226.7,49,239,49.4
	C244.8,49.5,249.3,49.3,254.7,46"/>
<path class="st1" d="M166.2,63.9c-0.3,0.6-12.7-4.5-17-9.8c-2.4-3-2.3-7.6,0-8.9c5-2.8,8.7,1.2,8,2.2c-0.3,0.5-1.8-0.2-3.7,0.5
	c-1.2,0.4-2.5,3.8,0.6,6.8C160.3,60.5,166.8,62.9,166.2,63.9"/>
<path class="st1" d="M265.3,63c-1.8,2.7-6.2,5.1-16.2,7c-8.8,1.6-22.7,0.4-36.4-2.3c-13.7-2.8-24-6.4-34-11.9
	c-12.3-6.8-16.9-15.6-16-21c1-6.8,14.1-7,12.8-3.3c-0.7,1.9-4,0.8-5.4,4c-1.6,3.7,2.8,10.4,15.2,16.9
	C208.3,64.1,246.7,75.2,265.3,63"/>
<path class="st2" d="M198.8,6c44.9-1.6,82.7,33.8,84.3,78.6c0.9,24.8-9.6,47.5-26.7,63.1C270,133,278,113.2,277.2,91.7
	c-0.8-24-11.5-46.4-29-60.2c-7-5.5-15.3-9.9-24.2-12.8c-8.1-2.9-16.7-4.5-25.8-4.5c-34.6,0-63.3,23.8-72.6,53
	c-0.8,4.2-4.5,5.7-2.8-1.1l0,0C132.1,32.6,162.3,7.2,198.8,6"/>
<path class="st3" d="M255.3,166.6h-0.7l-2,5.4l-2.1-5.4h-0.7l2.5,6.2l-0.4,1c-0.2,0.5-0.5,0.9-1.1,0.9c-0.3,0-0.7-0.1-0.7-0.1v0.5
	c0,0,0.3,0.1,0.8,0.1c0.8,0,1.3-0.5,1.6-1.2L255.3,166.6z M249.2,172.6v-0.5c-0.3,0.1-0.6,0.1-1,0.1c-0.8,0-1-0.5-1-1.2v-3.8h1.9
	v-0.6h-1.9v-1.8l-0.6,0.1v1.7h-1.2v0.6h1.2v3.8c0,1.1,0.4,1.8,1.6,1.8C248.5,172.8,248.9,172.7,249.2,172.6 M243.9,166.6h-0.6v6.1
	h0.6V166.6z M244,164.1h-0.8v0.8h0.8V164.1z M241.3,171c0-0.7-0.5-1.5-1.7-1.7l-1.2-0.2c-0.9-0.1-1.2-0.5-1.2-1
	c0-0.3,0.2-0.6,0.5-0.8c0.3-0.2,0.6-0.3,1.1-0.3c0.6,0,1.1,0.2,1.4,0.5c0.2,0.2,0.3,0.5,0.3,0.7h0.6c0-0.4-0.2-0.8-0.5-1.1
	c-0.4-0.5-1.1-0.7-1.8-0.7c-0.6,0-1.2,0.2-1.7,0.6c-0.3,0.3-0.5,0.7-0.5,1.2c0,0.4,0.1,0.7,0.3,1c0.3,0.4,0.9,0.5,1.4,0.6l1.2,0.2
	c0.7,0.1,1.1,0.6,1.1,1.1c0,0.4-0.1,0.6-0.3,0.8c-0.3,0.3-0.8,0.4-1.4,0.4c-0.6,0-1.1-0.1-1.4-0.5c-0.3-0.3-0.4-0.6-0.4-0.9h-0.6
	c0,0.5,0.2,0.8,0.5,1.2c0.5,0.5,1.2,0.8,2,0.8c0.8,0,1.5-0.2,2-0.7C241.1,171.8,241.3,171.5,241.3,171 M235.6,167.2v-0.6
	c-0.2,0-0.4,0-0.6,0c-0.8,0-1.7,0.4-1.9,1.3l-0.1-1.2h-0.5v6.1h0.6v-2.9c0-1.3,0.4-2.6,1.9-2.6C235.2,167.1,235.4,167.1,235.6,167.2
	 M230,169.2h-4c0-1.2,0.8-2.2,2-2.2C229.3,167,230,168.1,230,169.2 M230.6,169.4c0-1.5-1-2.9-2.6-2.9c-0.8,0-1.6,0.4-2.1,1.1
	c-0.5,0.6-0.6,1.4-0.6,2.2c0,0.9,0.3,1.7,0.8,2.3c0.4,0.5,1.1,0.9,1.9,0.9c0.7,0,1.3-0.3,1.7-0.7c0.3-0.3,0.6-0.8,0.7-1.3h-0.6
	c-0.1,0.4-0.2,0.6-0.5,0.9c-0.3,0.3-0.8,0.5-1.3,0.5c-0.7,0-1.1-0.2-1.5-0.6c-0.4-0.5-0.6-1.1-0.6-1.8h4.6
	C230.6,169.7,230.6,169.5,230.6,169.4 M224.6,166.6H224l-2,5.2l-2-5.2h-0.7l2.4,6.1h0.6L224.6,166.6z M217.9,166.6h-0.6v6.1h0.6
	V166.6z M218,164.1h-0.8v0.8h0.8V164.1z M214.9,172.7v-4c0-1.4-0.7-2.2-2.1-2.2c-0.9,0-1.7,0.5-2.1,1.3l-0.1-1.1h-0.5v6.1h0.6v-3
	c0-1.3,0.5-2.6,2-2.6c1.1,0,1.6,0.6,1.6,1.7v4H214.9z M207.7,169.5v-5.4h-0.6v5.5c0,1.5-0.7,2.7-2.4,2.7c-1.7,0-2.4-1.2-2.4-2.7
	v-5.5h-0.6v5.4c0,1.9,1,3.3,3,3.3C206.7,172.8,207.7,171.4,207.7,169.5 M197.2,171c0-0.7-0.5-1.5-1.7-1.7l-1.2-0.2
	c-0.9-0.1-1.2-0.5-1.2-1c0-0.3,0.2-0.6,0.5-0.8c0.3-0.2,0.6-0.3,1.1-0.3c0.6,0,1.1,0.2,1.4,0.5c0.2,0.2,0.3,0.5,0.3,0.7h0.6
	c0-0.4-0.2-0.8-0.5-1.1c-0.4-0.5-1.1-0.7-1.8-0.7c-0.6,0-1.2,0.2-1.7,0.6c-0.3,0.3-0.5,0.7-0.5,1.2c0,0.4,0.1,0.7,0.3,1
	c0.3,0.4,0.9,0.5,1.4,0.6l1.2,0.2c0.7,0.1,1.1,0.6,1.1,1.1c0,0.4-0.1,0.6-0.3,0.8c-0.3,0.3-0.8,0.4-1.4,0.4c-0.6,0-1.1-0.1-1.4-0.5
	c-0.3-0.3-0.4-0.6-0.4-0.9h-0.6c0,0.5,0.2,0.8,0.5,1.2c0.5,0.5,1.2,0.8,2,0.8c0.8,0,1.5-0.2,2-0.7C197,171.8,197.2,171.5,197.2,171
	 M191.2,166.6h-0.6l-1.3,5.3l-1.8-5.2h-0.6l-1.8,5.3l-1.3-5.3h-0.6l1.5,6.1h0.7l1.8-5.2l1.8,5.2h0.7L191.2,166.6z M181.5,169.2h-4
	c0-1.2,0.8-2.2,2-2.2C180.7,167,181.5,168.1,181.5,169.2 M182.1,169.4c0-1.5-1-2.9-2.6-2.9c-0.9,0-1.6,0.4-2.1,1.1
	c-0.5,0.6-0.6,1.4-0.6,2.2c0,0.9,0.3,1.7,0.8,2.3c0.4,0.5,1.1,0.9,1.9,0.9c0.7,0,1.3-0.3,1.7-0.7c0.3-0.3,0.6-0.8,0.7-1.3h-0.6
	c-0.1,0.4-0.2,0.6-0.5,0.9c-0.3,0.3-0.8,0.5-1.3,0.5c-0.7,0-1.1-0.2-1.5-0.6c-0.4-0.5-0.6-1.1-0.6-1.8h4.6
	C182.1,169.7,182.1,169.5,182.1,169.4 M176,167.2v-0.6c-0.2,0-0.4,0-0.6,0c-0.8,0-1.7,0.4-1.9,1.3l-0.1-1.2h-0.5v6.1h0.6v-2.9
	c0-1.3,0.4-2.6,1.9-2.6C175.6,167.1,175.8,167.1,176,167.2 M169.9,169.7c0,0.8-0.2,1.6-0.8,2.1c-0.3,0.3-0.7,0.5-1.2,0.5
	c-0.5,0-0.9-0.2-1.2-0.4c-0.6-0.5-0.8-1.3-0.8-2.2c0-0.8,0.2-1.6,0.7-2.1c0.3-0.3,0.7-0.5,1.3-0.5c0.6,0,1,0.2,1.3,0.5
	C169.7,168.1,169.9,168.8,169.9,169.7z M170.5,172.7v-8.8h-0.6v3.7c-0.3-0.7-1.2-1.2-2-1.2c-0.7,0-1.3,0.2-1.7,0.6
	c-0.6,0.6-0.9,1.6-0.9,2.6c0,1,0.3,2,1,2.6c0.4,0.4,0.9,0.6,1.6,0.6c0.8,0,1.7-0.5,2-1.2l0.1,1.1H170.5z M163.5,172.7v-4
	c0-1.4-0.7-2.2-2.1-2.2c-0.9,0-1.7,0.5-2.1,1.3l-0.1-1.1h-0.5v6.1h0.6v-3c0-1.3,0.5-2.6,2-2.6c1.1,0,1.6,0.6,1.6,1.7v4H163.5z
	 M155.7,169.8H152l1.8-4.9L155.7,169.8z M157.4,172.7l-3.3-8.6h-0.6l-3.3,8.6h0.7l0.8-2.3h4.2l0.9,2.3H157.4z M147.4,166.6h-0.7
	l-2,5.4l-2.1-5.4h-0.7l2.5,6.2l-0.4,1c-0.2,0.5-0.5,0.9-1.1,0.9c-0.3,0-0.7-0.1-0.7-0.1v0.5c0,0,0.3,0.1,0.8,0.1
	c0.8,0,1.3-0.5,1.6-1.2L147.4,166.6z M140.6,169.7c0,0.9-0.2,1.7-0.8,2.2c-0.3,0.3-0.7,0.4-1.2,0.4c-0.5,0-0.9-0.2-1.2-0.5
	c-0.5-0.5-0.8-1.3-0.8-2.1c0-0.9,0.2-1.6,0.8-2.1c0.3-0.3,0.7-0.5,1.3-0.5c0.6,0,1,0.2,1.3,0.5C140.4,168.1,140.6,168.9,140.6,169.7
	 M141.2,169.7c0-1-0.3-2-0.9-2.6c-0.4-0.4-0.9-0.6-1.7-0.6c-0.9,0-1.7,0.5-2,1.2v-3.7H136v8.8h0.5l0.1-1.1c0.3,0.8,1.2,1.2,2,1.2
	c0.7,0,1.2-0.2,1.6-0.6C140.9,171.7,141.2,170.7,141.2,169.7z M130.4,169.7c0,0.8-0.2,1.6-0.8,2.1c-0.3,0.3-0.7,0.5-1.2,0.5
	c-0.5,0-0.9-0.2-1.2-0.4c-0.6-0.5-0.8-1.3-0.8-2.2c0-0.8,0.2-1.6,0.7-2.1c0.3-0.3,0.7-0.5,1.3-0.5c0.6,0,1,0.2,1.3,0.5
	C130.2,168.1,130.4,168.8,130.4,169.7z M131,172.7v-8.8h-0.6v3.7c-0.3-0.7-1.2-1.2-2-1.2c-0.7,0-1.3,0.2-1.7,0.6
	c-0.6,0.6-0.9,1.6-0.9,2.6c0,1,0.3,2,1,2.6c0.4,0.4,0.9,0.6,1.6,0.6c0.8,0,1.7-0.5,2-1.2l0.1,1.1H131z M123.9,169.2h-4
	c0-1.2,0.8-2.2,2-2.2C123.1,167,123.8,168.1,123.9,169.2 M124.5,169.4c0-1.5-1-2.9-2.6-2.9c-0.8,0-1.6,0.4-2.1,1.1
	c-0.5,0.6-0.6,1.4-0.6,2.2c0,0.9,0.3,1.7,0.8,2.3c0.4,0.5,1.1,0.9,1.9,0.9c0.7,0,1.3-0.3,1.7-0.7c0.3-0.3,0.6-0.8,0.7-1.3h-0.6
	c-0.1,0.4-0.2,0.6-0.5,0.9c-0.3,0.3-0.8,0.5-1.3,0.5c-0.7,0-1.1-0.2-1.5-0.6c-0.4-0.5-0.6-1.1-0.6-1.8h4.6
	C124.5,169.7,124.5,169.5,124.5,169.4 M118.3,172.6v-0.5c-0.3,0.1-0.6,0.1-1,0.1c-0.8,0-1-0.5-1-1.2v-3.8h1.9v-0.6h-1.9v-1.8
	l-0.6,0.1v1.7h-1.2v0.6h1.2v3.8c0,1.1,0.4,1.8,1.6,1.8C117.6,172.8,117.9,172.7,118.3,172.6 M112.4,169.9c0,1.2-0.6,2.4-2.1,2.4
	c-0.9,0-1.5-0.4-1.5-1.3c0-0.7,0.6-1.2,1.5-1.3l2.2-0.1V169.9z M113.7,172.7v-0.5c-0.1,0-0.1,0-0.2,0c-0.4,0-0.5-0.2-0.5-0.7v-2.8
	c0-0.4,0-0.8-0.2-1.2c-0.3-0.8-1.2-1.1-2.1-1.1c-1.3,0-2.3,0.7-2.4,1.9h0.6c0.1-0.9,0.8-1.3,1.7-1.3c0.9,0,1.6,0.4,1.6,1.4v0.6
	l-2.2,0.2c-1.2,0.1-2,0.7-2,1.8c0,1.2,0.9,1.9,2.1,1.9c0.9,0,1.9-0.4,2.2-1.3c0,0.6,0.2,1.2,1,1.2
	C113.5,172.7,113.5,172.7,113.7,172.7z M107.3,167.2v-0.6c-0.2,0-0.4,0-0.6,0c-0.8,0-1.7,0.4-1.9,1.3l-0.1-1.2h-0.5v6.1h0.6v-2.9
	c0-1.3,0.4-2.6,1.9-2.6C106.9,167.1,107.1,167.1,107.3,167.2 M101.7,169.2h-4c0-1.2,0.8-2.2,2-2.2C101,167,101.7,168.1,101.7,169.2
	 M102.3,169.4c0-1.5-1-2.9-2.6-2.9c-0.9,0-1.6,0.4-2.1,1.1c-0.5,0.6-0.6,1.4-0.6,2.2c0,0.9,0.3,1.7,0.8,2.3c0.4,0.5,1.1,0.9,1.9,0.9
	c0.7,0,1.3-0.3,1.7-0.7c0.3-0.3,0.6-0.8,0.7-1.3h-0.6c-0.1,0.4-0.2,0.6-0.5,0.9c-0.3,0.3-0.8,0.5-1.3,0.5c-0.7,0-1.1-0.2-1.5-0.6
	c-0.4-0.5-0.6-1.1-0.6-1.8h4.6C102.3,169.7,102.3,169.5,102.3,169.4 M95.1,169.7c0,0.8-0.2,1.6-0.7,2.1c-0.3,0.3-0.7,0.5-1.3,0.5
	c-0.6,0-1-0.2-1.3-0.5c-0.6-0.5-0.8-1.2-0.8-2.1c0-0.8,0.2-1.6,0.8-2.1c0.3-0.3,0.7-0.5,1.2-0.5c0.5,0,0.9,0.2,1.2,0.4
	C94.9,168,95.1,168.8,95.1,169.7 M95.7,169.6c0-1-0.3-2-1-2.6c-0.4-0.4-0.9-0.6-1.6-0.6c-0.8,0-1.7,0.5-2,1.2l-0.1-1.1h-0.5v8.5h0.6
	v-3.4c0.3,0.7,1.2,1.2,2,1.2c0.7,0,1.2-0.2,1.6-0.6C95.4,171.6,95.7,170.6,95.7,169.6 M87.9,168.4c0,1,0,2.4-0.9,3.2
	c-0.4,0.4-1.1,0.7-1.7,0.7c-0.7,0-1.3-0.2-1.7-0.7c-0.8-0.8-0.9-2.2-0.9-3.2c0-1,0-2.4,0.9-3.2c0.4-0.4,1.1-0.7,1.7-0.7
	c0.7,0,1.3,0.2,1.7,0.7C87.9,166,87.9,167.4,87.9,168.4 M88.6,168.4c0-1.2-0.1-2.6-1.1-3.6c-0.5-0.5-1.3-0.9-2.2-0.9
	c-0.9,0-1.7,0.4-2.2,0.9c-1,0.9-1.1,2.3-1.1,3.6c0,1.2,0.1,2.7,1.1,3.6c0.5,0.5,1.3,0.9,2.2,0.9c0.9,0,1.7-0.4,2.2-0.9
	C88.5,171,88.6,169.6,88.6,168.4 M76.9,169.7c0,0.8-0.2,1.6-0.8,2.1c-0.3,0.3-0.7,0.5-1.2,0.5c-0.5,0-0.9-0.2-1.2-0.4
	c-0.6-0.5-0.8-1.3-0.8-2.2c0-0.8,0.2-1.6,0.7-2.1c0.3-0.3,0.7-0.5,1.3-0.5c0.6,0,1,0.2,1.3,0.5C76.7,168.1,76.9,168.8,76.9,169.7z
	 M77.5,172.7v-8.8h-0.6v3.7c-0.3-0.7-1.2-1.2-2-1.2c-0.7,0-1.2,0.2-1.7,0.6c-0.6,0.6-0.9,1.6-0.9,2.6c0,1,0.3,2,1,2.6
	c0.4,0.4,0.9,0.6,1.6,0.6c0.8,0,1.7-0.5,2-1.2l0.1,1.1H77.5z M70.5,172.7v-4c0-1.4-0.7-2.2-2.1-2.2c-0.8,0-1.7,0.5-2,1.3l-0.1-1.1
	h-0.5v6.1h0.6v-3c0-1.3,0.5-2.6,2-2.6c1.1,0,1.6,0.6,1.6,1.7v4H70.5z M62.7,169.9c0,1.2-0.6,2.4-2.1,2.4c-0.9,0-1.5-0.4-1.5-1.3
	c0-0.7,0.6-1.2,1.5-1.3l2.2-0.1V169.9z M64,172.7v-0.5c-0.1,0-0.1,0-0.2,0c-0.4,0-0.5-0.2-0.5-0.7v-2.8c0-0.4,0-0.8-0.2-1.2
	c-0.3-0.8-1.2-1.1-2.1-1.1c-1.3,0-2.3,0.7-2.4,1.9h0.6c0.1-0.9,0.8-1.3,1.7-1.3c0.9,0,1.6,0.4,1.6,1.4v0.6l-2.2,0.2
	c-1.2,0.1-2,0.7-2,1.8c0,1.2,0.9,1.9,2.1,1.9c0.9,0,1.9-0.4,2.2-1.3c0,0.6,0.2,1.2,1,1.2C63.8,172.7,63.8,172.7,64,172.7z
	 M53.3,169.7c0,0.8-0.2,1.6-0.8,2.1c-0.3,0.3-0.7,0.5-1.2,0.5c-0.5,0-0.9-0.2-1.2-0.4c-0.6-0.5-0.8-1.3-0.8-2.2
	c0-0.8,0.2-1.6,0.7-2.1c0.3-0.3,0.7-0.5,1.3-0.5c0.6,0,1,0.2,1.3,0.5C53.1,168.1,53.3,168.8,53.3,169.7z M53.9,172.7v-8.8h-0.6v3.7
	c-0.3-0.7-1.2-1.2-2-1.2c-0.7,0-1.3,0.2-1.7,0.6c-0.6,0.6-0.9,1.6-0.9,2.6c0,1,0.3,2,1,2.6c0.4,0.4,0.9,0.6,1.6,0.6
	c0.8,0,1.7-0.5,2-1.2l0.1,1.1H53.9z M46.8,169.2h-4c0-1.2,0.8-2.2,2-2.2C46.1,167,46.8,168.1,46.8,169.2 M47.4,169.4
	c0-1.5-1-2.9-2.6-2.9c-0.8,0-1.6,0.4-2.1,1.1c-0.5,0.6-0.6,1.4-0.6,2.2c0,0.9,0.3,1.7,0.8,2.3c0.4,0.5,1.1,0.9,1.9,0.9
	c0.7,0,1.3-0.3,1.7-0.7c0.3-0.3,0.6-0.8,0.7-1.3h-0.6c-0.1,0.4-0.2,0.6-0.5,0.9c-0.3,0.3-0.8,0.5-1.3,0.5c-0.7,0-1.1-0.2-1.5-0.6
	c-0.4-0.5-0.6-1.1-0.6-1.8h4.6C47.4,169.7,47.4,169.5,47.4,169.4 M40.4,172.7v-4c0-1.4-0.7-2.2-2.1-2.2c-0.8,0-1.7,0.5-2.1,1.3
	l-0.1-1.1h-0.5v6.1h0.6v-3c0-1.3,0.5-2.6,2-2.6c1.1,0,1.6,0.6,1.6,1.7v4H40.4z M33.9,166.6h-0.6l-1.3,5.3l-1.8-5.2h-0.6l-1.8,5.3
	l-1.3-5.3h-0.6l1.5,6.1h0.7l1.8-5.2l1.8,5.2h0.7L33.9,166.6z M24,168.4c0,1,0,2.4-0.9,3.2c-0.5,0.4-1.1,0.7-1.8,0.7
	c-0.7,0-1.3-0.2-1.7-0.7c-0.8-0.8-0.9-2.2-0.9-3.2c0-1,0-2.4,0.9-3.2c0.4-0.4,1.1-0.7,1.7-0.7c0.7,0,1.3,0.2,1.8,0.7
	C24,166,24,167.4,24,168.4 M24.7,168.4c0-1.2-0.1-2.6-1.1-3.6c-0.5-0.5-1.3-0.9-2.2-0.9c-0.9,0-1.7,0.4-2.2,0.9
	c-1,0.9-1.1,2.3-1.1,3.6c0,1.2,0.1,2.7,1.1,3.6c0.5,0.5,1.3,0.9,2.2,0.9c0.9,0,1.7-0.4,2.2-0.9C24.6,171,24.7,169.6,24.7,168.4"/>
</svg>
