<?xml version="1.0" encoding="utf-8"?>
<!-- Generator: Adobe Illustrator 19.0.0, SVG Export Plug-In . SVG Version: 6.00 Build 0)  -->
<svg version="1.1" id="Layer_1" xmlns="http://www.w3.org/2000/svg" xmlns:xlink="http://www.w3.org/1999/xlink" x="0px" y="0px"
	 width="71.6px" height="71.4px" viewBox="-475 349.6 71.6 71.4" style="enable-background:new -475 349.6 71.6 71.4;"
	 xml:space="preserve">
<style type="text/css">
	.st0{fill:#339DC3;}
	.st1{fill:#F1F2F2;}
</style>
<g id="XMLID_812_">
	<g id="XMLID_814_">
		<circle id="XMLID_820_" class="st0" cx="-439.2" cy="385.3" r="35.2"/>
		<g id="XMLID_815_">
			<path id="XMLID_816_" class="st1" d="M-417.5,371.8c-1.6,0.7-3.3,1.2-5.1,1.4c1.8-1.1,3.3-2.8,3.9-4.9c-1.7,1-3.6,1.8-5.7,2.2
				c-1.6-1.7-3.9-2.8-6.5-2.8c-4.9,0-8.9,4-8.9,8.9c0,0.7,0.1,1.4,0.2,2c-7.4-0.4-14-3.9-18.4-9.3c-0.8,1.3-1.2,2.8-1.2,4.5
				c0,3.1,1.6,5.8,4,7.4c-1.5,0-2.8-0.4-4-1.1c0,0,0,0.1,0,0.1c0,4.3,3.1,7.9,7.2,8.7c-0.7,0.2-1.5,0.3-2.3,0.3
				c-0.6,0-1.1-0.1-1.7-0.2c1.1,3.5,4.4,6.1,8.3,6.2c-3.1,2.4-6.9,3.8-11.1,3.8c-0.7,0-1.4,0-2.1-0.1c3.9,2.5,8.6,4,13.7,4
				c16.4,0,25.4-13.6,25.4-25.4c0-0.4,0-0.8,0-1.2C-420.2,375.2-418.7,373.6-417.5,371.8L-417.5,371.8z M-417.5,371.8"/>
		</g>
	</g>
</g>
</svg>
