<?xml version="1.0" encoding="utf-8"?>
<!-- Generator: Adobe Illustrator 19.0.0, SVG Export Plug-In . SVG Version: 6.00 Build 0)  -->
<svg version="1.1" id="Layer_1" xmlns="http://www.w3.org/2000/svg" xmlns:xlink="http://www.w3.org/1999/xlink" x="0px" y="0px"
	 width="655px" height="91px" viewBox="0 0 655 91" style="enable-background:new 0 0 655 91;" xml:space="preserve">
<style type="text/css">
	.st0{fill:#A9936F;}
	.st1{fill:none;}
	.st2{fill:#2D1F4A;}
	.st3{fill:#5F5383;}
	.st4{fill:#A68F60;}
	.st5{opacity:0.3;}
	.st6{fill:url(#SVGID_1_);}
	.st7{fill:#BEA781;}
	.st8{fill:url(#SVGID_2_);}
</style>
<g>
	<g>
		<path class="st0" d="M72.3,72.4c-1.9-0.1-2.1-0.4-2.4-9.5c-2.7,3.4-4,4.7-6,6.2c-3.7,2.7-9.7,4.6-14.7,4.6
			c-5.8,0-12.4-2.5-15.9-5.9c-3.9-3.7-6-9.9-6-17.2c0-0.7,0-1.8,0.1-3v-2.4V28.4c0-7.9-8.8-7.2-9-8.2c-0.3-1.3,10.6-2,17.4-3.3
			c1.5-0.3,1.8,0.4,1.8,4.6l-0.3,25.2V50c0,11,6.6,18.5,16.3,18.5c9.3,0,16.9-6.7,16.2-14.4v-0.4V28.8c0.1-9.4-9.1-7.6-9.1-8.6
			c0-1.6,13.3-2.9,17.7-3.7c0.9-0.1,1.9,0.1,1.9,3.4v8c5.4-6.5,12-9.8,19.6-9.8c8.2,0,13.2,3.1,17.8,10.8
			c5.7-7.4,12.3-10.8,20.7-10.8c12.9,0,20.7,8.9,20.7,23.7v16.3c0,3.3,0.6,6.5,1.5,7.7c1.2,1.6,5.1,3.4,7.9,3.7
			c1.4,0.1,1.8,0.6,1.8,1.5c0,0.9-0.6,1.3-1.6,1.3c-0.6,0-23.7,0-24.1,0c-1,0-2-0.5-2-1.4c0-0.6,0.4-1,1.2-1.3
			c5.1-1.9,5.4-2.4,5.4-10.2V44.4c0-7-1-10.8-3.9-14.5c-3-4-7-6.1-11.7-6.1c-7.2,0-14.5,4.9-14.5,9.6c0,0.4,0,1,0.2,1.8
			c0.4,2.4,0.4,2.7,0.4,4.9V59c0,7.4,1.9,9.8,9,10.4c1.7,0.1,2.4,0.7,2.4,1.6c0,0.9-0.7,1.3-1.9,1.3c0,0-23.8,0-24.2,0
			c-0.9,0-1.9-0.3-1.9-1.4c0-0.4,0.5-0.9,1.3-1.2c5.1-1.8,5.2-2.1,5.2-9.6V40.4c0-10.2-5.7-16.5-15-16.5c-8.5,0-14.4,4.7-14.4,12v24
			c0,1.8,0.1,3.6,0.1,5.1c0.7,4.1,9.5,3.8,9.5,4.4c0,0.7-0.2,1.1-0.8,1.2C89.2,70.5,72.4,72.4,72.3,72.4z"/>
	</g>
	<g>
		<g>
			<path class="st1" d="M529.5,45.6c7.8,0.4,15.5,0.8,23.1,1.3l-11.9-22.6L529.5,45.6z"/>
		</g>
		<g>
			<path class="st2" d="M540.8,24.3l11.9,22.6c3.2,0.2,6.4,0.4,9.5,0.6l-16.3-29.4h-9.6l-14.8,27.2c2.7,0.1,5.5,0.2,8.2,0.4
				L540.8,24.3z"/>
		</g>
		<g>
			<path class="st2" d="M602.5,18.1h-9v31.6c3,0.2,6,0.5,9,0.7V18.1z"/>
		</g>
		<g>
			<path class="st3" d="M566,72.2h10l-13.8-24.7c-3.1-0.2-6.3-0.4-9.5-0.6L566,72.2z"/>
		</g>
		<g>
			<path class="st3" d="M515.5,72.2l14-26.6c-2.7-0.1-5.5-0.3-8.2-0.4l-14.7,27H515.5z"/>
		</g>
		<g>
			<path class="st3" d="M643.5,72.2v-7.5h-41V50.4c-3-0.3-6-0.5-9-0.7v22.5H643.5z"/>
		</g>
		<g>
			<path class="st1" d="M321.6,44.1c4-0.1,8-0.3,12.1-0.4c0.6-0.2,1.2-0.4,1.6-0.8c0.9-0.8,1.3-2.2,1.3-4.4v-7.9
				c0-2.1-0.4-3.5-1.3-4.4c-0.9-0.8-2.4-1.2-4.6-1.2h-31v19.8c5.3-0.2,10.6-0.4,15.9-0.6v-0.2H321.6z"/>
		</g>
		<g>
			<polygon class="st2" points="227.1,18.1 210.6,50.5 210.6,50.5 			"/>
		</g>
		<g>
			<path class="st2" d="M180.3,18.1h-9.8l18.8,34.3c2.9-0.3,5.8-0.6,8.8-0.8L180.3,18.1z"/>
		</g>
		<g>
			<path class="st2" d="M262.5,18.1h-9v29.3c3-0.2,6-0.4,9-0.5V18.1z"/>
		</g>
		<g>
			<path class="st2" d="M391.5,25.4h24.9v-7.3h-58.6v7.3h24.8v17.4c3,0,6,0,9-0.1V25.4z"/>
		</g>
		<g>
			<path class="st2" d="M489.1,18.1h-9v25.6c3,0.1,6,0.2,9,0.3V18.1z"/>
		</g>
		<g>
			<path class="st2" d="M440.6,18.1h-9v24.7c3,0,6,0.1,9,0.1V18.1z"/>
		</g>
		<g>
			<path class="st2" d="M315.6,44.1v0.2c2-0.1,4-0.1,6.1-0.2H315.6z"/>
		</g>
		<g>
			<path class="st2" d="M299.6,25.1h31c2.2,0,3.7,0.4,4.6,1.2c0.9,0.8,1.3,2.3,1.3,4.4v7.9c0,2.2-0.4,3.6-1.3,4.4
				c-0.4,0.3-0.9,0.6-1.6,0.8c3.9-0.1,7.8-0.2,11.7-0.3c0.1-0.9,0.2-1.8,0.2-2.8V28.6c0-3.7-0.9-6.4-2.7-8c-1.8-1.6-4.7-2.5-8.7-2.5
				h-43.6v27.2c3-0.1,6-0.3,9-0.4V25.1z"/>
		</g>
		<g>
			<polygon class="st4" points="219.4,49.8 236,18.1 219.4,49.8 			"/>
		</g>
		<g>
			<path class="st4" d="M219.4,49.8L236,18.1h-8.9l-16.4,32.4C213.5,50.2,216.4,50,219.4,49.8z"/>
		</g>
		<g class="st5">
			
				<radialGradient id="SVGID_1_" cx="291.7073" cy="43.9028" r="3.5091" gradientTransform="matrix(1.2165 0 0 1 -27.2116 0)" gradientUnits="userSpaceOnUse">
				<stop  offset="0" style="stop-color:#D2C398"/>
				<stop  offset="1" style="stop-color:#A89162"/>
			</radialGradient>
			<path class="st6" d="M330.7,44.1c1.2,0,2.2-0.1,3-0.4c-4,0.1-8.1,0.2-12.1,0.4H330.7z"/>
		</g>
		<g>
			<path class="st3" d="M200.1,72.2l4.1-9l6.4-12.7l0,0l-6.4,12.7L198,51.6c-2.9,0.3-5.9,0.5-8.8,0.8L200.1,72.2L200.1,72.2z"/>
		</g>
		<g>
			<path class="st3" d="M262.5,72.2V46.8c-3,0.2-6,0.4-9,0.5v24.9H262.5z"/>
		</g>
		<g>
			<path class="st3" d="M391.5,72.2V42.7c-3,0-6,0-9,0.1v29.4H391.5z"/>
		</g>
		<g>
			<path class="st3" d="M434.3,69.5c1.8,1.8,5.1,2.7,10,2.7h32.2c4.9,0,8.2-0.9,10-2.7c1.7-1.8,2.6-5.2,2.6-10.1V44
				c-3-0.1-6-0.2-9-0.3v20.9h-39.4V42.9c-3,0-6-0.1-9-0.1v16.6C431.6,64.4,432.5,67.7,434.3,69.5z"/>
		</g>
		<g>
			<path class="st3" d="M299.6,72.2V44.9c-3,0.1-6,0.3-9,0.4v26.9H299.6z"/>
		</g>
		<g>
			<path class="st3" d="M330.7,44.1h-9.1c-2,0.1-4,0.1-6.1,0.2v6.8l22,21.1H351l-24.8-21.1h8c4,0,6.9-0.8,8.7-2.5
				c1.3-1.2,2.1-3,2.5-5.2c-3.9,0.1-7.8,0.2-11.7,0.3C332.9,44,331.9,44.1,330.7,44.1z"/>
		</g>
		<g>
			<path class="st7" d="M219.4,49.8c-2.9,0.2-5.9,0.5-8.8,0.7l-6.4,12.7l-4.1,9h7.6L219.4,49.8z"/>
		</g>
		<g>
			
				<radialGradient id="SVGID_2_" cx="996.6144" cy="-523.2282" r="27.2663" gradientTransform="matrix(-0.7725 0.635 0.635 0.7725 1639.6761 -180.6148)" gradientUnits="userSpaceOnUse">
				<stop  offset="0" style="stop-color:#D2C398"/>
				<stop  offset="1" style="stop-color:#A89162"/>
			</radialGradient>
			<path class="st8" d="M503.9,52.6l-2.4,5.5c30.9-0.6,65.1-5.6,73.2-18.6c-14.7,7.5-37.9,12.2-61.4,12.8c-0.7,0-6.5,0.2-6.5,0.2
				L503.9,52.6z"/>
		</g>
	</g>
</g>
</svg>
